<?xml version="1.0" encoding="UTF-8"?>
<svg id="Layer_2" data-name="Layer 2" xmlns="http://www.w3.org/2000/svg" viewBox="0 0 492.08 115.61">
  <defs>
    <style>
      .cls-1 {
        fill: #fff;
        font-family: Lexend-SemiBold, Lexend;
        font-size: 105.58px;
        font-variation-settings: 'wght' 600;
        font-weight: 600;
      }

      .cls-2 {
        fill: #ffb000;
      }

      .cls-3 {
        fill: #4a5ad1;
      }
    </style>
  </defs>
  <g id="Layer_1-2" data-name="Layer 1">
    <g>
      <g>
        <path class="cls-3" d="M55.53,19.19v62.18c0,6.22-5.09,11.31-11.31,11.31h-27.64c-6.22,0-11.31-5.09-11.31-11.31v-34.03c0-5.11,4.34-9.04,9.45-8.75,1.09.06,2.21.03,3.34-.09,9.18-1.01,16.54-8.51,17.39-17.7.1-1.11.11-2.21.04-3.28-.37-5.17,3.55-9.64,8.74-9.64h0c6.22,0,11.31,5.09,11.31,11.31Z"/>
        <path class="cls-2" d="M29.25,19.3c-.82,6.38-5.87,11.57-12.22,12.56-4.64.72-8.96-.75-12.08-3.53C1.46,25.25-.55,20.52.13,15.38.97,9,6.04,3.82,12.41,2.85c5.02-.76,9.68,1.05,12.83,4.32,2.97,3.07,4.62,7.41,4.01,12.13Z"/>
      </g>
      <text class="cls-1" transform="translate(60.79 89.74)"><tspan x="0" y="0">Mediato</tspan></text>
    </g>
  </g>
</svg>